# Blender v2.80 (sub 75) OBJ File: 'untitled.blend'
# www.blender.org
mtllib decor2.mtl
g Cylinder.014_Cylinder.028
v 23.369396 0.000000 2.961750
v 23.437059 0.000000 3.000815
v 23.437059 0.000000 3.078945
v 23.369396 0.000000 3.118010
v 23.301733 0.000000 3.078945
v 23.301733 0.000000 3.000815
v 23.334229 0.077918 3.019575
v 23.369396 0.077918 2.999271
v 23.404564 0.077918 3.060185
v 23.404564 0.077918 3.019575
v 23.369396 0.077918 3.080489
v 23.334229 0.077918 3.060185
v 23.301733 0.077918 3.000815
v 23.369396 0.077918 2.961750
v 23.437059 0.077918 3.078945
v 23.437059 0.077918 3.000815
v 23.369396 0.077918 3.118010
v 23.301733 0.077918 3.078945
v 23.350691 0.569439 3.029080
v 23.369396 0.569439 3.018280
v 23.388102 0.569439 3.050680
v 23.388102 0.569439 3.029080
v 23.369396 0.569439 3.061480
v 23.350691 0.569439 3.050680
v 23.334229 0.569439 3.019575
v 23.369396 0.569439 2.999271
v 23.404564 0.569439 3.060185
v 23.404564 0.569439 3.019575
v 23.369396 0.569439 3.080489
v 23.334229 0.569439 3.060185
v 23.350691 0.935016 3.029080
v 23.369396 0.935016 3.018280
v 23.388102 0.935016 3.050680
v 23.388102 0.935016 3.029080
v 23.369396 0.935016 3.061480
v 23.350691 0.935016 3.050680
v 23.312397 0.935023 3.010917
v 23.340719 0.885965 3.010917
v 23.397367 0.885965 3.010917
v 23.425690 0.935023 3.010917
v 23.397367 0.984081 3.010917
v 23.340719 0.984081 3.010917
v 23.340719 0.984081 3.069941
v 23.312397 0.935023 3.069941
v 23.397367 0.885965 3.069941
v 23.340719 0.885965 3.069941
v 23.425690 0.935023 3.069941
v 23.397367 0.984081 3.069941
vt 0.457846 0.370000
vt 0.457846 0.130000
vt 0.250000 0.010000
vt 0.042154 0.130000
vt 0.042154 0.370000
vt 0.250000 0.490000
vt 0.250000 0.374744
vt 0.141969 0.312372
vt 0.141969 0.312372
vt 0.250000 0.374744
vt 0.042154 0.130000
vt 0.042154 0.370000
vt 0.457846 0.130000
vt 0.250000 0.010000
vt 0.457846 0.370000
vt 0.250000 0.490000
vt 0.358031 0.312372
vt 0.358031 0.187628
vt 0.250000 0.125256
vt 0.141969 0.187628
vt 0.192538 0.283175
vt 0.192538 0.216825
vt 0.192538 0.216825
vt 0.192538 0.283175
vt 0.141969 0.187628
vt 0.358031 0.187628
vt 0.250000 0.125256
vt 0.358031 0.312372
vt 0.250000 0.316351
vt 0.307462 0.283175
vt 0.307462 0.216824
vt 0.250000 0.183649
vt 0.307462 0.283175
vt 0.250000 0.316351
vt 0.250000 0.183649
vt 0.307462 0.216824
vt 0.457846 0.370000
vt 0.250000 0.490000
vt 0.042154 0.370000
vt 0.042154 0.130000
vt 0.250000 0.010000
vt 0.457846 0.130000
vt 0.457846 0.370000
vt 0.457846 0.130000
vt 0.250000 0.010000
vt 0.042154 0.130000
vt 0.042154 0.370000
vt 0.250000 0.490000
vn 0.0000 -1.0000 0.0000
vn -0.5000 0.0000 -0.8660
vn -1.0000 0.0000 0.0000
vn 0.5000 0.0000 0.8660
vn 1.0000 0.0000 0.0000
vn 0.5000 0.0000 -0.8660
vn -0.5000 0.0000 0.8660
vn 0.0000 1.0000 0.0000
vn 0.0000 0.0000 -1.0000
vn 0.0000 0.0000 1.0000
vn -0.8660 -0.5000 0.0000
vn 0.8660 0.5000 0.0000
vn -0.8660 0.5000 0.0000
vn 0.8660 -0.5000 0.0000
g Cylinder.014_Cylinder.028_Material.295
usemtl Material.295
s off
f 2/1/1 3/2/1 4/3/1 5/4/1 6/5/1 1/6/1
f 8/7/2 7/8/2 25/9/2 26/10/2
f 6/5/3 5/4/3 18/11/3 13/12/3
f 4/3/4 3/2/4 15/13/4 17/14/4
f 3/2/5 2/1/5 16/15/5 15/13/5
f 2/1/6 1/6/6 14/16/6 16/15/6
f 5/4/7 4/3/7 17/14/7 18/11/7
f 1/6/2 6/5/2 13/12/2 14/16/2
f 7/8/8 8/7/8 14/16/8 13/12/8
f 10/17/8 9/18/8 15/13/8 16/15/8
f 11/19/8 12/20/8 18/11/8 17/14/8
f 9/18/8 11/19/8 17/14/8 15/13/8
f 8/7/8 10/17/8 16/15/8 14/16/8
f 12/20/8 7/8/8 13/12/8 18/11/8
f 19/21/3 24/22/3 36/23/3 31/24/3
f 7/8/3 12/20/3 30/25/3 25/9/3
f 11/19/4 9/18/4 27/26/4 29/27/4
f 9/18/5 10/17/5 28/28/5 27/26/5
f 10/17/6 8/7/6 26/10/6 28/28/6
f 12/20/7 11/19/7 29/27/7 30/25/7
f 19/21/8 20/29/8 26/10/8 25/9/8
f 22/30/8 21/31/8 27/26/8 28/28/8
f 23/32/8 24/22/8 30/25/8 29/27/8
f 21/31/8 23/32/8 29/27/8 27/26/8
f 20/29/8 22/30/8 28/28/8 26/10/8
f 24/22/8 19/21/8 25/9/8 30/25/8
f 34/33/8 32/34/8 31/24/8 36/23/8 35/35/8 33/36/8
f 23/32/4 21/31/4 33/36/4 35/35/4
f 21/31/5 22/30/5 34/33/5 33/36/5
f 22/30/6 20/29/6 32/34/6 34/33/6
f 24/22/7 23/32/7 35/35/7 36/23/7
f 20/29/2 19/21/2 31/24/2 32/34/2
g Cylinder.014_Cylinder.028_Material.294
usemtl Material.294
f 38/37/9 37/38/9 42/39/9 41/40/9 40/41/9 39/42/9
f 46/43/10 45/44/10 47/45/10 48/46/10 43/47/10 44/48/10
f 38/37/11 46/43/11 44/48/11 37/38/11
f 41/40/12 48/46/12 47/45/12 40/41/12
f 37/38/13 44/48/13 43/47/13 42/39/13
f 42/39/8 43/47/8 48/46/8 41/40/8
f 40/41/14 47/45/14 45/44/14 39/42/14
f 39/42/1 45/44/1 46/43/1 38/37/1
