# Blender v2.80 (sub 75) OBJ File: 'untitled.blend'
# www.blender.org
mtllib decor3.mtl
g Plane.325_Plane.393
v 22.048693 0.000000 4.469233
v 22.126635 0.000000 4.514233
v 22.126635 0.000000 4.604232
v 22.048693 0.000000 4.649232
v 21.970751 0.000000 4.604232
v 21.970751 0.000000 4.514233
v 22.126635 0.073682 4.604232
v 22.126635 0.073682 4.514233
v 22.048693 0.073682 4.649232
v 21.970751 0.073682 4.604232
v 21.970751 0.073682 4.514233
v 22.048693 0.073682 4.469233
v 22.047863 0.073680 4.475815
v 22.120110 0.073680 4.517527
v 22.120110 0.073680 4.600949
v 22.047863 0.073680 4.642661
v 21.975616 0.073680 4.600949
v 21.975616 0.073680 4.517527
v 21.975616 0.385275 4.517527
v 22.047863 0.385275 4.475815
v 22.120110 0.385275 4.600949
v 22.120110 0.385275 4.517527
v 22.047863 0.385275 4.642661
v 21.975616 0.385275 4.600949
v 22.048693 0.387398 4.469233
v 22.126635 0.387398 4.514233
v 22.126635 0.387398 4.604232
v 22.048693 0.387398 4.649232
v 21.970751 0.387398 4.604232
v 21.970751 0.387398 4.514233
v 22.102198 0.461080 4.590124
v 22.102198 0.461080 4.528341
v 22.048693 0.461080 4.621015
v 21.995188 0.461080 4.590124
v 21.995188 0.461080 4.528341
v 22.048693 0.461080 4.497450
v 22.102198 0.518584 4.590124
v 22.102198 0.518584 4.528341
v 22.048693 0.518584 4.621015
v 21.995188 0.518584 4.590124
v 21.995188 0.518584 4.528341
v 22.048693 0.518584 4.497450
v 22.046968 0.518584 4.492132
v 22.105139 0.518584 4.525716
v 22.105139 0.518584 4.592885
v 22.046968 0.518584 4.626470
v 21.988798 0.518584 4.592885
v 21.988798 0.518584 4.525716
v 21.988798 0.531281 4.525716
v 22.046968 0.531281 4.492132
v 22.105139 0.531281 4.592885
v 22.105139 0.531281 4.525716
v 22.046968 0.531281 4.626470
v 21.988798 0.531281 4.592885
vt 0.457846 0.370000
vt 0.457846 0.130000
vt 0.250000 0.010000
vt 0.042154 0.130000
vt 0.042154 0.370000
vt 0.250000 0.490000
vt 0.457846 0.370000
vt 0.250000 0.490000
vt 0.042154 0.370000
vt 0.042154 0.130000
vt 0.250000 0.010000
vt 0.457846 0.130000
vt 0.457846 0.370000
vt 0.457846 0.130000
vt 0.250000 0.010000
vt 0.042154 0.130000
vt 0.042154 0.370000
vt 0.250000 0.490000
vt 0.457846 0.370000
vt 0.250000 0.490000
vt 0.042154 0.370000
vt 0.042154 0.130000
vt 0.250000 0.010000
vt 0.457846 0.130000
vt 0.457846 0.370000
vt 0.457846 0.130000
vt 0.250000 0.010000
vt 0.042154 0.130000
vt 0.042154 0.370000
vt 0.250000 0.490000
vt 0.457846 0.370000
vt 0.250000 0.490000
vt 0.250000 0.490000
vt 0.457846 0.370000
vt 0.042154 0.130000
vt 0.042154 0.370000
vt 0.457846 0.130000
vt 0.250000 0.010000
vt 0.042154 0.370000
vt 0.042154 0.130000
vt 0.250000 0.010000
vt 0.457846 0.130000
vt 0.457846 0.370000
vt 0.457846 0.130000
vt 0.250000 0.010000
vt 0.042154 0.130000
vt 0.042154 0.370000
vt 0.250000 0.490000
vt 0.457846 0.370000
vt 0.250000 0.490000
vt 0.042154 0.370000
vt 0.042154 0.130000
vt 0.250000 0.010000
vt 0.457846 0.130000
vn 0.0000 -1.0000 0.0000
vn 0.0000 1.0000 0.0000
vn 0.5000 0.0000 -0.8660
vn -1.0000 0.0000 0.0000
vn 1.0000 0.0000 0.0000
vn -0.5000 0.0000 -0.8660
vn -0.5000 0.0000 0.8660
vn 0.5000 0.0000 0.8660
vn 0.4746 0.3148 -0.8220
vn -0.9492 0.3148 0.0000
vn 0.9492 0.3148 0.0000
vn -0.4746 0.3148 -0.8220
vn -0.4746 0.3148 0.8220
vn 0.4746 0.3148 0.8220
g Plane.325_Plane.393_Material.299
usemtl Material.299
s off
f 2/1/1 3/2/1 4/3/1 5/4/1 6/5/1 1/6/1
f 8/7/2 12/8/2 11/9/2 10/10/2 9/11/2 7/12/2
f 2/1/3 1/6/3 12/8/3 8/7/3
f 6/5/4 5/4/4 10/10/4 11/9/4
f 3/2/5 2/1/5 8/7/5 7/12/5
f 1/6/6 6/5/6 11/9/6 12/8/6
f 5/4/7 4/3/7 9/11/7 10/10/7
f 4/3/8 3/2/8 7/12/8 9/11/8
g Plane.325_Plane.393_Material.298
usemtl Material.298
f 14/13/1 15/14/1 16/15/1 17/16/1 18/17/1 13/18/1
f 22/19/2 20/20/2 19/21/2 24/22/2 23/23/2 21/24/2
f 14/13/3 13/18/3 20/20/3 22/19/3
f 17/16/7 16/15/7 23/23/7 24/22/7
f 13/18/6 18/17/6 19/21/6 20/20/6
f 18/17/4 17/16/4 24/22/4 19/21/4
f 16/15/8 15/14/8 21/24/8 23/23/8
f 15/14/5 14/13/5 22/19/5 21/24/5
g Plane.325_Plane.393_Material.297
usemtl Material.297
f 26/25/1 27/26/1 28/27/1 29/28/1 30/29/1 25/30/1
f 32/31/3 36/32/3 42/33/3 38/34/3
f 26/25/9 25/30/9 36/32/9 32/31/9
f 30/29/10 29/28/10 34/35/10 35/36/10
f 27/26/11 26/25/11 32/31/11 31/37/11
f 25/30/12 30/29/12 35/36/12 36/32/12
f 29/28/13 28/27/13 33/38/13 34/35/13
f 28/27/14 27/26/14 31/37/14 33/38/14
f 38/34/2 42/33/2 41/39/2 40/40/2 39/41/2 37/42/2
f 35/36/4 34/35/4 40/40/4 41/39/4
f 31/37/5 32/31/5 38/34/5 37/42/5
f 36/32/6 35/36/6 41/39/6 42/33/6
f 34/35/7 33/38/7 39/41/7 40/40/7
f 33/38/8 31/37/8 37/42/8 39/41/8
g Plane.325_Plane.393_Material.296
usemtl Material.296
f 44/43/1 45/44/1 46/45/1 47/46/1 48/47/1 43/48/1
f 52/49/2 50/50/2 49/51/2 54/52/2 53/53/2 51/54/2
f 48/47/4 47/46/4 54/52/4 49/51/4
f 46/45/8 45/44/8 51/54/8 53/53/8
f 45/44/5 44/43/5 52/49/5 51/54/5
f 44/43/3 43/48/3 50/50/3 52/49/3
f 47/46/7 46/45/7 53/53/7 54/52/7
f 43/48/6 48/47/6 49/51/6 50/50/6
