# Blender v2.80 (sub 75) OBJ File: 'untitled.blend'
# www.blender.org
mtllib jsjs.mtl
o Sphere_Sphere.006
v 0.000000 0.429319 -0.429319
v 0.000000 0.232346 -0.560932
v 0.088915 0.560932 -0.214660
v 0.164293 0.429319 -0.396639
v 0.214660 0.232346 -0.518234
v 0.232346 -0.000000 -0.560932
v 0.164293 0.560932 -0.164293
v 0.303574 0.429319 -0.303574
v 0.396639 0.232346 -0.396639
v 0.429319 -0.000000 -0.429319
v 0.214659 0.560932 -0.088915
v 0.396639 0.429319 -0.164293
v 0.518234 0.232346 -0.214660
v 0.560932 -0.000000 -0.232346
v 0.232346 0.560932 -0.000000
v 0.429319 0.429319 -0.000000
v 0.560932 0.232346 -0.000000
v 0.607149 -0.000000 -0.000000
v 0.214659 0.560932 0.088915
v 0.396639 0.429319 0.164293
v 0.518234 0.232346 0.214659
v 0.560932 -0.000000 0.232346
v 0.164293 0.560932 0.164293
v 0.303574 0.429319 0.303574
v 0.396639 0.232346 0.396639
v 0.429319 -0.000000 0.429319
v 0.088915 0.560932 0.214659
v 0.164293 0.429319 0.396639
v 0.214659 0.232346 0.518234
v 0.232346 -0.000000 0.560932
v -0.000000 0.560932 0.232346
v -0.000000 0.429319 0.429319
v -0.000000 0.232346 0.560932
v -0.000000 -0.000000 0.607149
v 0.146087 0.150509 -0.734432
v 0.443394 0.160121 0.663585
v -0.088915 0.560932 0.214659
v -0.164293 0.429319 0.396639
v -0.214660 0.232346 0.518234
v -0.232346 -0.000000 0.560932
v -0.394475 0.142943 0.590374
v -0.658232 0.158864 -0.439817
v 0.116173 -0.000000 -0.584041
v -0.164293 0.560932 0.164293
v -0.303574 0.429319 0.303574
v -0.396639 0.232346 0.396639
v -0.429319 -0.000000 0.429319
v 0.000000 0.116173 -0.584041
v -0.457436 0.232346 -0.305649
v -0.495125 -0.000000 -0.330833
v -0.214659 0.560932 0.088915
v -0.396639 0.429319 0.164293
v -0.518234 0.232346 0.214659
v -0.560932 -0.000000 0.232345
v -0.412979 0.116173 -0.412979
v -0.539583 0.116173 -0.223503
v -0.305649 0.232346 0.457436
v -0.232346 0.560932 -0.000000
v -0.429319 0.429319 -0.000000
v -0.560932 0.232346 -0.000000
v -0.607149 -0.000000 -0.000000
v -0.330832 -0.000000 0.495125
v -0.412979 0.116173 0.412979
v -0.223503 0.116173 0.539583
v -0.214659 0.560932 -0.088915
v -0.396639 0.429319 -0.164293
v -0.518234 0.232346 -0.214660
v -0.560932 -0.000000 -0.232346
v 0.305649 0.232346 0.457436
v 0.330832 -0.000000 0.495126
v 0.223502 0.116173 0.539583
v -0.164293 0.560932 -0.164293
v -0.303574 0.429319 -0.303575
v -0.396639 0.232346 -0.396639
v -0.429319 -0.000000 -0.429319
v 0.412979 0.116173 0.412979
v 0.107330 0.232346 -0.539583
v 0.223503 0.116173 -0.539583
v -0.088915 0.560932 -0.214660
v -0.164293 0.429319 -0.396639
v -0.214659 0.232346 -0.518234
v -0.232345 -0.000000 -0.560932
v 0.797602 0.163074 -0.158653
v 0.539583 0.232346 -0.107330
v 0.584040 -0.000000 -0.116173
v -0.000000 0.607149 -0.000000
v 0.000000 0.560932 -0.232346
v 0.000000 -0.000000 -0.607149
v 0.584040 0.116173 -0.000000
v 0.539583 0.116173 -0.223503
v 0.000000 0.330832 -0.495126
v 0.126604 0.495126 -0.305649
v 0.233934 0.495126 -0.233934
v 0.126604 0.560932 -0.189476
v 0.233934 0.429319 -0.350107
v 0.495126 0.330832 -0.000000
v 0.457436 0.330832 0.189476
v 0.539583 0.232346 0.107330
v 0.412979 0.429319 0.082147
v 0.233934 0.495126 0.233934
v 0.126604 0.495126 0.305649
v 0.233934 0.429319 0.350107
v 0.126604 0.560932 0.189476
v -0.000000 0.330832 0.495125
v -0.189476 0.330832 0.457436
v -0.107330 0.232346 0.539583
v -0.082147 0.429319 0.412979
v -0.350107 0.330832 0.350106
v -0.457436 0.330832 0.189476
v -0.350107 0.429319 0.233934
v -0.457436 0.232346 0.305649
v -0.305649 0.495126 -0.126604
v -0.233934 0.495126 -0.233934
v -0.350107 0.429319 -0.233934
v -0.189476 0.560932 -0.126604
v -0.189476 0.330832 -0.457437
v -0.107330 0.232346 -0.539583
v -0.082147 0.429319 -0.412979
v -0.125107 0.432847 -0.628956
v -0.344876 0.627678 -0.230439
v -0.494648 0.402459 0.330513
v -0.120145 0.416177 0.604008
v 0.229488 0.625164 0.343452
v 0.651689 0.448036 0.129629
v 0.250344 0.680269 -0.374666
vt 0.750000 0.625000
vt 0.750000 0.687500
vt 0.750000 0.750000
vt 0.687500 0.750000
vt 0.687500 0.625000
vt 0.718750 0.625000
vt 0.750000 0.875000
vt 0.718750 1.000000
vt 0.687500 0.875000
vt 0.687500 0.812500
vt 0.656250 1.000000
vt 0.625000 0.875000
vt 0.656250 0.875000
vt 0.687500 0.500000
vt 0.687500 0.562500
vt 0.625000 0.625000
vt 0.625000 0.500000
vt 0.656250 0.750000
vt 0.625000 0.750000
vt 0.562500 0.625000
vt 0.562500 0.562500
vt 0.562500 0.500000
vt 0.625000 0.812500
vt 0.562500 0.875000
vt 0.562500 0.750000
vt 0.593750 1.000000
vt 0.500000 0.750000
vt 0.500000 0.687500
vt 0.500000 0.625000
vt 0.531250 0.625000
vt 0.531250 1.000000
vt 0.500000 0.875000
vt 0.468750 1.000000
vt 0.437500 0.875000
vt 0.500000 0.500000
vt 0.500000 0.562500
vt 0.468750 0.625000
vt 0.437500 0.625000
vt 0.437500 0.500000
vt 0.437500 0.750000
vt 0.468750 0.750000
vt 0.375000 0.625000
vt 0.375000 0.562500
vt 0.375000 0.500000
vt 0.375000 0.875000
vt 0.375000 0.812500
vt 0.375000 0.750000
vt 0.437500 0.687500
vt 0.406250 1.000000
vt 0.343750 0.750000
vt 0.312500 0.750000
vt 0.312500 0.625000
vt 0.343750 0.625000
vt 0.343750 1.000000
vt 0.312500 0.875000
vt 0.343750 0.875000
vt 0.250000 0.750000
vt 0.250000 0.687500
vt 0.250000 0.625000
vt 0.281250 1.000000
vt 0.250000 0.875000
vt 0.312500 0.500000
vt 0.312500 0.562500
vt 0.250000 0.500000
vt 0.312500 0.812500
vt 0.218750 1.000000
vt 0.187500 0.875000
vt 0.218750 0.625000
vt 0.187500 0.625000
vt 0.187500 0.562500
vt 0.187500 0.500000
vt 0.187500 0.750000
vt 0.218750 0.750000
vt 0.125000 0.875000
vt 0.125000 0.750000
vt 0.187500 0.687500
vt 0.125000 0.687500
vt 0.156250 1.000000
vt 0.062500 0.875000
vt 0.062500 0.750000
vt 0.093750 0.750000
vt 0.093750 1.000000
vt 0.125000 0.500000
vt 0.125000 0.562500
vt 0.125000 0.625000
vt 0.093750 0.625000
vt 0.062500 0.625000
vt 0.062500 0.500000
vt 0.062500 0.687500
vt 0.000000 0.750000
vt 0.000000 0.625000
vt 0.031250 1.000000
vt 0.000000 0.875000
vt 0.000000 0.500000
vt 1.000000 0.875000
vt 0.968750 1.000000
vt 0.937500 0.875000
vt 1.000000 0.500000
vt 1.000000 0.625000
vt 0.937500 0.625000
vt 0.937500 0.562500
vt 0.937500 0.500000
vt 1.000000 0.750000
vt 0.937500 0.812500
vt 0.937500 0.750000
vt 0.906250 0.750000
vt 0.875000 0.750000
vt 0.875000 0.625000
vt 0.906250 0.625000
vt 0.906250 1.000000
vt 0.875000 0.875000
vt 0.906250 0.875000
vt 0.812500 0.750000
vt 0.812500 0.687500
vt 0.812500 0.625000
vt 0.843750 1.000000
vt 0.812500 0.875000
vt 0.875000 0.500000
vt 0.875000 0.562500
vt 0.812500 0.500000
vt 0.875000 0.812500
vt 0.781250 1.000000
vt 0.781250 0.625000
vt 0.750000 0.562500
vt 0.750000 0.500000
vt 0.781250 0.750000
vt 0.531250 0.500000
vt 0.343750 0.500000
vt 0.156250 0.500000
vt 0.906250 0.500000
vt 0.718750 0.500000
vt 0.156250 0.625000
vt 0.718750 0.562500
vt 0.656250 0.812500
vt 0.531250 0.562500
vt 0.468750 0.687500
vt 0.343750 0.562500
vt 0.343750 0.812500
vt 0.218750 0.687500
vt 0.156250 0.562500
vt 0.093750 0.687500
vt 0.906250 0.562500
vt 0.906250 0.812500
vt 0.781250 0.687500
vn 0.1632 0.5481 -0.8203
vn 0.0388 0.9800 -0.1949
vn 0.1098 0.8264 -0.5522
vn 0.1104 0.9800 -0.1653
vn 0.5453 0.1915 -0.8161
vn 0.4647 0.5481 -0.6954
vn 0.8161 0.1915 -0.5453
vn 0.4681 0.8264 -0.3128
vn 0.6954 0.5481 -0.4647
vn 0.1653 0.9800 -0.1104
vn 0.8203 0.5481 -0.1632
vn 0.1949 0.9800 -0.0388
vn 0.5522 0.8264 -0.1098
vn 0.1949 0.9800 0.0388
vn 0.9626 0.1915 0.1915
vn 0.5522 0.8264 0.1098
vn 0.8161 0.1915 0.5453
vn 0.4681 0.8264 0.3128
vn 0.6954 0.5481 0.4647
vn 0.1653 0.9800 0.1104
vn 0.4647 0.5481 0.6954
vn 0.1104 0.9800 0.1653
vn 0.1632 0.5481 0.8203
vn 0.0388 0.9800 0.1949
vn 0.1915 0.1915 0.9626
vn 0.1098 0.8264 0.5522
vn -0.0388 0.9800 0.1949
vn -0.1915 0.1915 0.9626
vn -0.1098 0.8264 0.5522
vn -0.3128 0.8264 0.4681
vn -0.4647 0.5481 0.6954
vn -0.1104 0.9800 0.1653
vn -0.4681 0.8264 0.3128
vn -0.1653 0.9800 0.1104
vn -0.8161 0.1915 0.5453
vn -0.8203 0.5481 0.1632
vn -0.1949 0.9800 0.0388
vn -0.9626 0.1915 0.1915
vn -0.5522 0.8264 0.1098
vn -0.1949 0.9800 -0.0388
vn -0.9626 0.1915 -0.1915
vn -0.5522 0.8264 -0.1098
vn -0.8203 0.5481 -0.1632
vn -0.6954 0.5481 -0.4647
vn -0.1653 0.9800 -0.1104
vn -0.4647 0.5481 -0.6954
vn -0.1104 0.9800 -0.1653
vn -0.5453 0.1915 -0.8161
vn -0.3128 0.8264 -0.4681
vn -0.0388 0.9800 -0.1949
vn -0.1915 0.1915 -0.9626
vn -0.1098 0.8264 -0.5522
vn 0.0000 -1.0000 -0.0000
vn 0.6345 0.6345 -0.4414
vn 0.5883 0.5761 0.5674
vn 0.5372 0.6740 0.5071
vn 0.0361 0.7437 0.6675
vn -0.2378 0.6673 0.7058
vn -0.6473 0.6632 0.3757
vn -0.6232 0.7608 0.1809
vn -0.7561 0.5910 0.2812
vn -0.6035 0.7627 -0.2326
vn -0.4173 0.6345 -0.6506
vn -0.3669 -0.3669 -0.8549
vn 0.6661 -0.3669 -0.6494
vn 0.7431 0.6673 0.0504
vn 0.8649 -0.4371 0.2468
vn -0.0635 0.6640 -0.7450
vn 0.4612 0.6584 -0.5948
vn -0.1030 -0.4371 0.8935
vn 0.0296 0.5910 0.8062
vn -0.0819 -0.2893 0.9537
vn -0.8498 -0.2893 0.4406
vn -0.7126 0.6640 0.2264
vn -0.8984 -0.4293 0.0926
vn -0.2583 -0.4293 -0.8654
vn 0.3023 0.6740 -0.6740
vn 0.5633 0.7532 -0.3397
vn 0.5347 -0.4539 -0.7128
vn 0.7668 -0.4539 0.4539
vn 0.4185 -0.0466 -0.9070
vn -0.7337 -0.0466 -0.6778
vn -0.6504 0.7532 -0.0983
vn -0.1747 0.3084 -0.9351
vn -0.9308 0.3084 0.1964
vn -0.3730 0.6584 0.6537
vn -0.9934 0.0873 0.0740
vn -0.4486 0.0873 0.8895
vn -0.0161 0.7627 0.6466
vn -0.6941 0.0212 0.7195
vn 0.3660 0.0212 0.9304
vn 0.5066 0.7608 0.4056
vn -0.1912 0.3160 0.9293
vn 0.9317 0.3160 0.1790
vn 0.5948 0.6632 -0.4542
vn 0.6425 -0.0980 0.7600
vn 0.8845 -0.0980 -0.4562
vn 0.2888 0.7437 -0.6029
vn 0.9786 0.1789 -0.1013
vn -0.2809 0.1789 -0.9429
vn -0.7494 0.5761 -0.3264
g Sphere_Sphere.006_Material.296
usemtl Material.296
s off
f 2/1/1 91/2/1 1/3/1 4/4/1 5/5/1 77/6/1
f 87/7/2 86/8/2 3/9/2
f 1/3/3 87/7/3 3/9/3 92/10/3 4/4/3
f 3/9/4 86/11/4 7/12/4 94/13/4
f 6/14/5 78/15/5 5/5/5 9/16/5 10/17/5
f 5/5/6 4/4/6 95/18/6 8/19/6 9/16/6
f 10/17/7 9/16/7 13/20/7 90/21/7 14/22/7
f 8/19/8 93/23/8 7/12/8 11/24/8 12/25/8
f 9/16/9 8/19/9 12/25/9 13/20/9
f 7/12/10 86/26/10 11/24/10
f 13/20/11 12/25/11 16/27/11 96/28/11 17/29/11 84/30/11
f 11/24/12 86/31/12 15/32/12
f 12/25/13 11/24/13 15/32/13 16/27/13
f 15/32/14 86/33/14 19/34/14
f 18/35/15 89/36/15 17/29/15 98/37/15 21/38/15 22/39/15
f 16/27/16 15/32/16 19/34/16 20/40/16 99/41/16
f 22/39/17 21/38/17 25/42/17 76/43/17 26/44/17
f 20/40/18 19/34/18 23/45/18 100/46/18 24/47/18
f 21/38/19 97/48/19 20/40/19 24/47/19 25/42/19
f 19/34/20 86/49/20 23/45/20
f 25/42/21 24/47/21 102/50/21 28/51/21 29/52/21 69/53/21
f 23/45/22 86/54/22 27/55/22 103/56/22
f 29/52/23 28/51/23 32/57/23 104/58/23 33/59/23
f 27/55/24 86/60/24 31/61/24
f 30/62/25 71/63/25 29/52/25 33/59/25 34/64/25
f 28/51/26 101/65/26 27/55/26 31/61/26 32/57/26
f 31/61/27 86/66/27 37/67/27
f 34/64/28 33/59/28 106/68/28 39/69/28 64/70/28 40/71/28
f 32/57/29 31/61/29 37/67/29 38/72/29 107/73/29
f 38/72/30 37/67/30 44/74/30 45/75/30
f 105/76/31 38/72/31 45/75/31 108/77/31
f 37/67/32 86/78/32 44/74/32
f 45/75/33 44/74/33 51/79/33 52/80/33 110/81/33
f 44/74/34 86/82/34 51/79/34
f 47/83/35 63/84/35 46/85/35 111/86/35 53/87/35 54/88/35
f 53/87/36 109/89/36 52/80/36 59/90/36 60/91/36
f 51/79/37 86/92/37 58/93/37
f 54/88/38 53/87/38 60/91/38 61/94/38
f 52/80/39 51/79/39 58/93/39 59/90/39
f 58/95/40 86/96/40 65/97/40
f 61/98/41 60/99/41 67/100/41 56/101/41 68/102/41
f 59/103/42 58/95/42 65/97/42 112/104/42 66/105/42
f 60/99/43 59/103/43 66/105/43 67/100/43
f 67/100/44 66/105/44 114/106/44 73/107/44 74/108/44 49/109/44
f 65/97/45 86/110/45 72/111/45 115/112/45
f 74/108/46 73/107/46 80/113/46 116/114/46 81/115/46
f 72/111/47 86/116/47 79/117/47
f 75/118/48 55/119/48 74/108/48 81/115/48 82/120/48
f 73/107/49 113/121/49 72/111/49 79/117/49 80/113/49
f 79/117/50 86/122/50 87/7/50
f 82/120/51 81/115/51 117/123/51 2/1/51 48/124/51 88/125/51
f 80/113/52 79/117/52 87/7/52 1/3/52 118/126/52
f 10/17/53 14/22/53 85/127/53 18/35/53 22/39/53 26/44/53 70/128/53 30/62/53 34/64/53 40/71/53 62/129/53 47/83/53 54/88/53 61/94/53 68/102/53 50/130/53 75/118/53 82/120/53 88/125/53 43/131/53 6/14/53
f 39/69/31 105/76/31 108/77/31 46/85/31 57/132/31
g Sphere_Sphere.006_Material.297
usemtl Material.297
f 35/133/54 77/6/54 5/5/54 78/15/54
f 125/134/55 94/13/55 7/12/55 93/23/55
f 83/135/56 84/30/56 17/29/56 89/36/56
f 124/136/57 99/41/57 20/40/57 97/48/57
f 36/137/58 69/53/58 29/52/58 71/63/58
f 123/138/59 103/56/59 27/55/59 101/65/59
f 122/139/60 107/73/60 38/72/60 105/76/60
f 41/140/61 57/132/61 46/85/61 63/84/61
f 121/141/62 110/81/62 52/80/62 109/89/62
f 48/124/63 2/1/63 77/6/63 35/133/63
f 88/125/64 48/124/64 35/133/64 43/131/64
f 43/131/65 35/133/65 78/15/65 6/14/65
f 76/43/66 25/42/66 69/53/66 36/137/66
f 26/44/67 76/43/67 36/137/67 70/128/67
f 42/142/68 49/109/68 74/108/68 55/119/68
f 120/143/69 115/112/69 72/111/69 113/121/69
f 70/128/70 36/137/70 71/63/70 30/62/70
f 64/70/71 39/69/71 57/132/71 41/140/71
f 40/71/72 64/70/72 41/140/72 62/129/72
f 62/129/73 41/140/73 63/84/73 47/83/73
f 56/101/74 67/100/74 49/109/74 42/142/74
f 68/102/75 56/101/75 42/142/75 50/130/75
f 50/130/76 42/142/76 55/119/76 75/118/76
f 90/21/77 13/20/77 84/30/77 83/135/77
f 119/144/78 118/126/78 1/3/78 91/2/78
f 14/22/79 90/21/79 83/135/79 85/127/79
f 85/127/80 83/135/80 89/36/80 18/35/80
f 117/123/81 119/144/81 91/2/81 2/1/81
f 81/115/82 116/114/82 119/144/82 117/123/82
f 116/114/83 80/113/83 118/126/83 119/144/83
f 114/106/84 120/143/84 113/121/84 73/107/84
f 66/105/85 112/104/85 120/143/85 114/106/85
f 112/104/86 65/97/86 115/112/86 120/143/86
f 111/86/87 121/141/87 109/89/87 53/87/87
f 46/85/88 108/77/88 121/141/88 111/86/88
f 108/77/89 45/75/89 110/81/89 121/141/89
f 106/68/90 122/139/90 105/76/90 39/69/90
f 33/59/91 104/58/91 122/139/91 106/68/91
f 104/58/92 32/57/92 107/73/92 122/139/92
f 102/50/93 123/138/93 101/65/93 28/51/93
f 24/47/94 100/46/94 123/138/94 102/50/94
f 100/46/95 23/45/95 103/56/95 123/138/95
f 98/37/96 124/136/96 97/48/96 21/38/96
f 17/29/97 96/28/97 124/136/97 98/37/97
f 96/28/98 16/27/98 99/41/98 124/136/98
f 95/18/99 125/134/99 93/23/99 8/19/99
f 4/4/100 92/10/100 125/134/100 95/18/100
f 92/10/101 3/9/101 94/13/101 125/134/101
