# Blender v2.80 (sub 75) OBJ File: 'untitled.blend'
# www.blender.org
mtllib miska.mtl
g Cylinder.013_Cylinder.027
v -1.836993 -0.255257 -13.785145
v -1.708640 -0.255257 -13.731979
v -1.655474 -0.255257 -13.603626
v -1.708640 -0.255257 -13.475273
v -1.836993 -0.255257 -13.422108
v -1.965346 -0.255257 -13.475273
v -2.018512 -0.255257 -13.603626
v -1.965346 -0.255257 -13.731979
v -1.836993 -0.137003 -13.706949
v -1.763933 -0.137003 -13.676686
v -1.763933 -0.137003 -13.530566
v -1.836993 -0.137003 -13.500303
v -1.940316 -0.137003 -13.603626
v -1.910053 -0.137003 -13.676686
v -1.910053 -0.137003 -13.530566
v -1.733670 -0.137003 -13.603626
v -1.836993 -0.137003 -13.742694
v -1.738657 -0.137003 -13.701962
v -1.738657 -0.137003 -13.505290
v -1.836993 -0.137003 -13.464559
v -1.976061 -0.137003 -13.603626
v -1.935329 -0.137003 -13.701962
v -1.935329 -0.137003 -13.505290
v -1.697925 -0.137003 -13.603626
v -1.836993 -0.179233 -13.706949
v -1.763933 -0.179233 -13.676686
v -1.763933 -0.179233 -13.530566
v -1.836993 -0.179233 -13.500303
v -1.940316 -0.179233 -13.603626
v -1.910053 -0.179233 -13.676686
v -1.910053 -0.179233 -13.530566
v -1.733670 -0.179233 -13.603626
vt 0.419706 0.419706
vt 0.490000 0.250000
vt 0.419706 0.080294
vt 0.250000 0.010000
vt 0.080294 0.080294
vt 0.010000 0.250000
vt 0.080294 0.419706
vt 0.250000 0.490000
vt 0.428312 0.250000
vt 0.376086 0.376086
vt 0.376086 0.376086
vt 0.428312 0.250000
vt 0.419706 0.419706
vt 0.490000 0.250000
vt 0.419706 0.080294
vt 0.010000 0.250000
vt 0.080294 0.419706
vt 0.250000 0.490000
vt 0.080294 0.080294
vt 0.250000 0.010000
vt 0.250000 0.428312
vt 0.376086 0.123914
vt 0.250000 0.071688
vt 0.071688 0.250000
vt 0.123914 0.376086
vt 0.123914 0.123914
vt 0.250000 0.428312
vt 0.123914 0.376086
vt 0.071688 0.250000
vt 0.123914 0.123914
vt 0.250000 0.071688
vt 0.376086 0.123914
vn 0.0000 -1.0000 0.0000
vn -0.9239 0.0000 0.3827
vn 0.8769 0.3148 -0.3632
vn 0.8769 0.3148 0.3632
vn -0.8769 0.3148 -0.3632
vn 0.3632 0.3148 -0.8769
vn -0.3632 0.3148 -0.8769
vn -0.8769 0.3148 0.3632
vn -0.3632 0.3148 0.8769
vn 0.3632 0.3148 0.8769
vn 0.0000 1.0000 0.0000
vn -0.9239 0.0000 -0.3827
vn 0.9239 0.0000 0.3827
vn -0.3827 0.0000 0.9239
vn 0.3827 0.0000 0.9239
vn 0.9239 0.0000 -0.3827
vn 0.3827 0.0000 -0.9239
vn -0.3827 0.0000 -0.9239
g Cylinder.013_Cylinder.027_None
usemtl None
s off
f 2/1/1 3/2/1 4/3/1 5/4/1 6/5/1 7/6/1 8/7/1 1/8/1
f 16/9/2 10/10/2 26/11/2 32/12/2
f 3/2/3 2/1/3 18/13/3 24/14/3
f 4/3/4 3/2/4 24/14/4 19/15/4
f 8/7/5 7/6/5 21/16/5 22/17/5
f 2/1/6 1/8/6 17/18/6 18/13/6
f 1/8/7 8/7/7 22/17/7 17/18/7
f 7/6/8 6/5/8 23/19/8 21/16/8
f 6/5/9 5/4/9 20/20/9 23/19/9
f 5/4/10 4/3/10 19/15/10 20/20/10
f 9/21/11 10/10/11 18/13/11 17/18/11
f 11/22/11 12/23/11 20/20/11 19/15/11
f 13/24/11 14/25/11 22/17/11 21/16/11
f 12/23/11 15/26/11 23/19/11 20/20/11
f 16/9/11 11/22/11 19/15/11 24/14/11
f 15/26/11 13/24/11 21/16/11 23/19/11
f 10/10/11 16/9/11 24/14/11 18/13/11
f 14/25/11 9/21/11 17/18/11 22/17/11
f 26/11/11 25/27/11 30/28/11 29/29/11 31/30/11 28/31/11 27/32/11 32/12/11
f 11/22/12 16/9/12 32/12/12 27/32/12
f 14/25/13 13/24/13 29/29/13 30/28/13
f 10/10/14 9/21/14 25/27/14 26/11/14
f 9/21/15 14/25/15 30/28/15 25/27/15
f 13/24/16 15/26/16 31/30/16 29/29/16
f 15/26/17 12/23/17 28/31/17 31/30/17
f 12/23/18 11/22/18 27/32/18 28/31/18
