# Blender v2.80 (sub 75) OBJ File: 'untitled.blend'
# www.blender.org
mtllib raketa.mtl
g Plane.221_Plane.283
v -20.106741 -0.042042 -9.347256
v -18.560453 2.012960 -6.129395
v -18.849846 -0.042042 -8.060702
v -23.526134 2.012960 -6.187300
v -22.030775 2.012960 -9.681606
v -18.870819 -0.042042 -6.262213
v -20.157373 -0.042042 -5.005318
v -23.502150 2.012960 -8.244152
v -21.955862 -0.042042 -5.026290
v -22.088680 2.012960 -4.715925
v -20.031828 2.012960 -4.691940
v -23.212757 -0.042042 -6.312844
v -18.536469 2.012960 -8.186247
v -23.191784 -0.042042 -8.111334
v -21.905231 -0.042042 -9.368228
v -19.973923 2.012960 -9.657621
v -19.857843 5.613070 -5.654367
v -19.322718 5.559837 -6.134165
v -18.889099 5.029121 -6.357130
v -18.810995 4.331809 -6.192652
v -19.134157 3.876376 -5.737082
v -19.669283 3.929609 -5.257284
v -20.102901 4.460325 -5.034320
v -20.181005 5.157638 -5.198797
v -19.548603 5.468203 -5.432903
v -19.151403 5.428690 -5.789036
v -18.829546 5.034762 -5.954533
v -18.771574 4.517178 -5.832448
v -19.011444 4.179129 -5.494298
v -19.408644 4.218642 -5.138165
v -19.730499 4.612570 -4.972668
v -19.788473 5.130155 -5.094752
v -19.641867 5.692014 -5.422244
v -19.106741 5.638780 -5.902040
v -18.595018 4.410752 -5.960528
v -18.918180 3.955319 -5.504957
v -19.886925 4.539268 -4.802196
v -19.965029 5.236581 -4.966673
v -19.453306 4.008552 -5.025160
v -18.673122 5.108064 -6.125005
v -19.652399 5.430264 -5.544458
v -19.255198 5.390752 -5.900591
v -18.933342 4.996824 -6.066088
v -18.875368 4.479239 -5.944004
v -19.115238 4.141191 -5.605853
v -19.512438 4.180703 -5.249720
v -19.834295 4.574631 -5.084223
v -19.892269 5.092216 -5.206307
v -19.677402 4.921342 -8.960011
v -19.899982 4.520281 -9.212566
v -19.825203 4.002142 -9.223300
v -19.496866 3.670444 -8.985925
v -19.107311 3.719490 -8.639491
v -18.884731 4.120551 -8.386936
v -18.959511 4.638690 -8.376203
v -19.287848 4.970388 -8.613578
v -19.448971 4.792509 -9.096646
v -19.614182 4.494819 -9.284107
v -19.558676 4.110227 -9.292074
v -19.314966 3.864021 -9.115881
v -19.025816 3.900426 -8.858738
v -18.860603 4.198116 -8.671277
v -18.916111 4.582708 -8.663310
v -19.159821 4.828914 -8.839504
v -19.522440 4.947393 -9.137952
v -19.745020 4.546333 -9.390508
v -19.341904 3.696495 -9.163866
v -18.952347 3.745542 -8.817432
v -18.804548 4.664741 -8.554144
v -19.132883 4.996440 -8.791519
v -18.729767 4.146602 -8.564878
v -19.670238 4.028194 -9.401241
v -19.523445 4.779989 -9.011130
v -19.688656 4.482299 -9.198591
v -19.633148 4.097707 -9.206558
v -19.389439 3.851501 -9.030365
v -19.100288 3.887906 -8.773223
v -18.935078 4.185596 -8.585762
v -18.990583 4.570189 -8.577795
v -19.234293 4.816394 -8.753988
v -21.035755 8.091349 -7.247460
v -20.997965 8.091349 -7.231807
v -20.982313 8.091349 -7.194017
v -20.997965 8.091349 -7.156228
v -21.035755 8.091349 -7.140575
v -21.073545 8.091349 -7.156228
v -21.089197 8.091349 -7.194017
v -21.073545 8.091349 -7.231807
v -21.035755 9.117980 -7.198674
v -21.032463 9.117980 -7.197310
v -21.032463 9.117980 -7.190724
v -21.035755 9.117980 -7.189361
v -21.040413 9.117980 -7.194017
v -21.039047 9.117980 -7.197310
v -21.039047 9.117980 -7.190724
v -21.031097 9.117980 -7.194017
v -21.035469 8.647851 -7.248276
v -20.997534 8.647851 -7.232563
v -20.981821 8.647851 -7.194628
v -20.997534 8.647851 -7.156693
v -21.035469 8.647851 -7.140980
v -21.073404 8.647851 -7.156693
v -21.089117 8.647851 -7.194628
v -21.073404 8.647851 -7.232563
v -21.035469 8.694696 -7.248276
v -20.997534 8.694696 -7.232563
v -20.997534 8.694696 -7.156693
v -21.035469 8.694696 -7.140980
v -21.089117 8.694696 -7.194628
v -21.073404 8.694696 -7.232563
v -21.073404 8.694696 -7.156693
v -20.981821 8.694696 -7.194628
v -20.158670 0.015669 -9.225910
v -18.699232 1.955249 -6.188783
v -18.972370 0.015669 -8.011618
v -23.386009 1.955249 -6.243436
v -21.974640 1.955249 -9.541481
v -18.992165 0.015669 -6.314142
v -20.206457 0.015669 -5.127842
v -23.363371 1.955249 -8.184763
v -21.903933 0.015669 -5.147636
v -22.029291 1.955249 -4.854703
v -20.087965 1.955249 -4.832066
v -23.090233 0.015669 -6.361930
v -18.676594 1.955249 -8.130111
v -23.070438 0.015669 -8.059404
v -21.856146 0.015669 -9.245705
v -20.033312 1.955249 -9.518843
v -20.158670 1.021788 -9.225910
v -18.972370 1.021788 -8.011618
v -23.363371 2.961369 -8.184763
v -23.070438 1.021788 -8.059404
v -18.676594 2.961369 -8.130111
v -20.087965 2.961369 -4.832066
v -20.206457 1.021788 -5.127842
v -18.992165 1.021788 -6.314142
v -18.699232 2.961369 -6.188783
v -23.386009 2.961369 -6.243436
v -23.090233 1.021788 -6.361930
v -21.903933 1.021788 -5.147636
v -21.856146 1.021788 -9.245705
v -22.029291 2.961369 -4.854703
v -20.033312 2.961369 -9.518843
v -21.974640 2.961369 -9.541481
v -21.974640 4.479553 -9.541481
v -20.033312 4.479553 -9.518843
v -18.676594 4.479553 -8.130111
v -18.699232 4.479553 -6.188783
v -23.363371 4.479553 -8.184763
v -23.386009 4.479553 -6.243436
v -20.087965 4.479553 -4.832066
v -22.029291 4.479553 -4.854703
v -21.912142 5.147753 -9.385479
v -20.099430 5.147753 -9.364342
v -18.832596 5.147753 -8.067614
v -18.853733 5.147753 -6.254901
v -23.208870 5.147753 -8.118646
v -23.230007 5.147753 -6.305933
v -20.150461 5.147753 -4.988067
v -21.963175 5.147753 -5.009205
v -21.816776 5.717625 -9.147430
v -20.200321 5.717625 -9.128581
v -19.070644 5.717625 -7.972247
v -19.089493 5.717625 -6.355793
v -22.973110 5.717625 -8.017754
v -22.991959 5.717625 -6.401299
v -20.245829 5.717625 -5.226116
v -21.862282 5.717625 -5.244965
v -21.574123 6.723536 -8.541738
v -20.457031 6.723536 -8.528711
v -19.676336 6.723536 -7.729596
v -19.689363 6.723536 -6.612502
v -22.373240 6.723536 -7.761045
v -22.386267 6.723536 -6.643951
v -20.488480 6.723536 -5.831809
v -21.605574 6.723536 -5.844835
v -21.304287 7.541061 -7.868186
v -20.742500 7.541061 -7.861636
v -20.349888 7.541061 -7.459759
v -20.356440 7.541061 -6.897971
v -21.706163 7.541061 -7.475575
v -21.712715 7.541061 -6.913787
v -20.758316 7.541061 -6.505360
v -21.320103 7.541061 -6.511911
v -21.055515 8.091355 -7.247212
v -21.005686 8.091355 -7.246631
v -20.970863 8.091355 -7.210986
v -20.971445 8.091355 -7.161158
v -21.091160 8.091355 -7.212389
v -21.091740 8.091355 -7.162560
v -21.007090 8.091355 -7.126335
v -21.056917 8.091355 -7.126915
v -24.698092 0.004714 -7.286940
v -23.078848 1.274334 -7.286940
v -24.402514 2.875404 -7.286940
v -23.314993 4.495499 -7.286940
v -24.698092 0.004714 -6.976065
v -23.078848 1.274334 -6.976065
v -24.402514 2.875404 -6.976065
v -23.314993 4.495499 -6.976065
v -21.096693 -0.003799 -10.906220
v -21.096693 1.265821 -9.286978
v -21.096693 2.866890 -10.610642
v -21.096693 4.486986 -9.523123
v -21.407568 -0.003799 -10.906221
v -21.407568 1.265821 -9.286978
v -21.407568 2.866890 -10.610642
v -21.407568 4.486986 -9.523123
v -21.272390 0.004714 -3.461291
v -21.272390 1.274334 -5.080534
v -21.272390 2.875404 -3.756869
v -21.272390 4.495499 -4.844389
v -20.961515 0.004714 -3.461291
v -20.961515 1.274334 -5.080534
v -20.961515 2.875404 -3.756869
v -20.961515 4.495499 -4.844389
vt 0.080294 0.419706
vt 0.010000 0.250000
vt 0.010000 0.250000
vt 0.080294 0.419706
vt 0.080294 0.080294
vt 0.080294 0.080294
vt 0.419706 0.419706
vt 0.250000 0.490000
vt 0.250000 0.490000
vt 0.419706 0.419706
vt 0.490000 0.250000
vt 0.490000 0.250000
vt 0.250000 0.010000
vt 0.419706 0.080294
vt 0.419706 0.080294
vt 0.250000 0.010000
vt 0.419706 0.419706
vt 0.490000 0.250000
vt 0.419706 0.080294
vt 0.250000 0.010000
vt 0.080294 0.080294
vt 0.010000 0.250000
vt 0.080294 0.419706
vt 0.250000 0.490000
vt 0.250000 0.428142
vt 0.124035 0.375965
vt 0.124035 0.375965
vt 0.250000 0.428142
vt 0.250000 0.490000
vt 0.419706 0.419706
vt 0.080294 0.419706
vt 0.080294 0.080294
vt 0.010000 0.250000
vt 0.250000 0.010000
vt 0.419706 0.080294
vt 0.490000 0.250000
vt 0.375965 0.375965
vt 0.375965 0.124035
vt 0.250000 0.071858
vt 0.071858 0.250000
vt 0.124035 0.124035
vt 0.428142 0.250000
vt 0.375965 0.375965
vt 0.071858 0.250000
vt 0.124035 0.124035
vt 0.250000 0.071858
vt 0.375965 0.124035
vt 0.428142 0.250000
vt 0.419706 0.419706
vt 0.490000 0.250000
vt 0.419706 0.080294
vt 0.250000 0.010000
vt 0.080294 0.080294
vt 0.010000 0.250000
vt 0.080294 0.419706
vt 0.250000 0.490000
vt 0.250000 0.428142
vt 0.124035 0.375965
vt 0.124035 0.375965
vt 0.250000 0.428142
vt 0.250000 0.490000
vt 0.419706 0.419706
vt 0.080294 0.419706
vt 0.080294 0.080294
vt 0.010000 0.250000
vt 0.250000 0.010000
vt 0.419706 0.080294
vt 0.490000 0.250000
vt 0.375965 0.375965
vt 0.375965 0.124035
vt 0.250000 0.071858
vt 0.071858 0.250000
vt 0.124035 0.124035
vt 0.428142 0.250000
vt 0.375965 0.375965
vt 0.071858 0.250000
vt 0.124035 0.124035
vt 0.250000 0.071858
vt 0.375965 0.124035
vt 0.428142 0.250000
vt 0.419706 0.419706
vt 0.490000 0.250000
vt 0.419706 0.080294
vt 0.250000 0.010000
vt 0.080294 0.080294
vt 0.010000 0.250000
vt 0.080294 0.419706
vt 0.250000 0.490000
vt 0.419706 0.419706
vt 0.250000 0.490000
vt 0.080294 0.419706
vt 0.010000 0.250000
vt 0.080294 0.080294
vt 0.250000 0.010000
vt 0.419706 0.080294
vt 0.490000 0.250000
vt 0.419706 0.419706
vt 0.490000 0.250000
vt 0.419706 0.080294
vt 0.250000 0.010000
vt 0.080294 0.080294
vt 0.010000 0.250000
vt 0.080294 0.419706
vt 0.250000 0.490000
vt 0.419706 0.419706
vt 0.250000 0.490000
vt 0.080294 0.419706
vt 0.010000 0.250000
vt 0.080294 0.080294
vt 0.250000 0.010000
vt 0.419706 0.080294
vt 0.490000 0.250000
vt 0.080294 0.419706
vt 0.080294 0.419706
vt 0.010000 0.250000
vt 0.010000 0.250000
vt 0.080294 0.080294
vt 0.080294 0.080294
vt 0.419706 0.419706
vt 0.419706 0.419706
vt 0.250000 0.490000
vt 0.250000 0.490000
vt 0.490000 0.250000
vt 0.490000 0.250000
vt 0.250000 0.010000
vt 0.250000 0.010000
vt 0.419706 0.080294
vt 0.419706 0.080294
vt 0.080294 0.419706
vt 0.010000 0.250000
vt 0.010000 0.250000
vt 0.080294 0.419706
vt 0.080294 0.080294
vt 0.080294 0.080294
vt 0.419706 0.419706
vt 0.250000 0.490000
vt 0.250000 0.490000
vt 0.419706 0.419706
vt 0.490000 0.250000
vt 0.490000 0.250000
vt 0.250000 0.010000
vt 0.419706 0.080294
vt 0.419706 0.080294
vt 0.250000 0.010000
vt 0.419706 0.419706
vt 0.490000 0.250000
vt 0.010000 0.250000
vt 0.080294 0.080294
vt 0.080294 0.080294
vt 0.010000 0.250000
vt 0.080294 0.419706
vt 0.250000 0.010000
vt 0.250000 0.490000
vt 0.419706 0.080294
vt 0.250000 0.010000
vt 0.419706 0.080294
vt 0.419706 0.080294
vt 0.250000 0.010000
vt 0.080294 0.419706
vt 0.250000 0.490000
vt 0.419706 0.419706
vt 0.490000 0.250000
vt 0.490000 0.250000
vt 0.490000 0.250000
vt 0.419706 0.080294
vt 0.080294 0.080294
vt 0.010000 0.250000
vt 0.080294 0.419706
vt 0.250000 0.490000
vt 0.419706 0.419706
vt 0.419706 0.419706
vt 0.250000 0.490000
vt 0.250000 0.490000
vt 0.419706 0.419706
vt 0.250000 0.010000
vt 0.080294 0.080294
vt 0.010000 0.250000
vt 0.080294 0.419706
vt 0.080294 0.080294
vt 0.250000 0.010000
vt 0.250000 0.010000
vt 0.080294 0.080294
vt 0.010000 0.250000
vt 0.080294 0.419706
vt 0.490000 0.250000
vt 0.419706 0.080294
vt 0.419706 0.419706
vt 0.250000 0.490000
vt 0.080294 0.419706
vt 0.010000 0.250000
vt 0.419706 0.080294
vt 0.490000 0.250000
vt 0.000000 0.000000
vt 0.000000 1.000000
vt 1.000000 1.000000
vt 1.000000 0.000000
vt 0.000000 0.000000
vt 1.000000 0.000000
vt 1.000000 1.000000
vt 0.000000 1.000000
vt 0.000000 0.000000
vt 0.000000 1.000000
vt 1.000000 1.000000
vt 1.000000 0.000000
vt 0.000000 0.000000
vt 1.000000 0.000000
vt 1.000000 1.000000
vt 0.000000 1.000000
vt 0.000000 0.000000
vt 0.000000 1.000000
vt 1.000000 1.000000
vt 1.000000 0.000000
vt 0.000000 0.000000
vt 1.000000 0.000000
vt 1.000000 1.000000
vt 0.000000 1.000000
vn -0.6909 -0.1501 -0.7072
vn -0.9886 -0.1501 -0.0115
vn 0.7072 -0.1501 -0.6909
vn 0.9886 -0.1501 0.0115
vn -0.0115 -0.1501 0.9886
vn 0.6909 -0.1501 0.7072
vn 0.0000 -1.0000 -0.0000
vn -0.7072 -0.1501 0.6909
vn 0.0115 -0.1501 -0.9886
vn 0.0000 1.0000 -0.0000
vn -0.6610 -0.2416 -0.7104
vn 0.6017 -0.7364 -0.3094
vn -0.1084 0.9676 -0.2282
vn -0.6017 0.7364 0.3094
vn -0.4484 -0.6319 0.6321
vn 0.1084 -0.9676 0.2282
vn 0.4484 0.6319 -0.6321
vn 0.7425 -0.0739 -0.6657
vn -0.7425 0.0739 0.6657
vn 0.6610 0.2416 0.7104
vn -0.6528 -0.1097 0.7496
vn 0.1428 -0.9895 -0.0205
vn -0.6271 0.6335 -0.4533
vn -0.1428 0.9895 0.0205
vn 0.7440 0.0937 0.6616
vn 0.6270 -0.6335 0.4533
vn -0.7440 -0.0937 -0.6616
vn -0.4251 -0.7659 -0.4823
vn 0.4251 0.7659 0.4823
vn 0.6528 0.1097 -0.7496
vn -0.6270 0.6335 -0.4533
vn 0.0000 1.0000 0.0001
vn 0.9230 0.0439 -0.3823
vn 0.9230 0.0439 0.3823
vn -0.9230 0.0439 -0.3823
vn 0.3823 0.0439 -0.9230
vn -0.3823 0.0439 -0.9230
vn -0.9230 0.0439 0.3823
vn -0.3823 0.0439 0.9230
vn 0.3823 0.0439 0.9230
vn 0.9239 0.0000 -0.3827
vn 0.9239 0.0000 0.3827
vn -0.9239 0.0000 -0.3827
vn 0.3827 0.0000 -0.9239
vn -0.3827 0.0000 -0.9239
vn -0.9239 0.0000 0.3827
vn -0.3827 0.0000 0.9239
vn 0.3827 0.0000 0.9239
vn 0.6909 0.1501 0.7072
vn 0.9886 0.1501 0.0115
vn -0.7072 0.1501 0.6909
vn -0.9886 0.1501 -0.0115
vn 0.0115 0.1501 -0.9886
vn -0.6909 0.1501 -0.7072
vn 0.7072 0.1501 -0.6909
vn -0.0115 0.1501 0.9886
vn 0.9999 0.0000 0.0117
vn -0.9740 0.2263 -0.0114
vn -0.6988 0.0000 -0.7153
vn -0.7153 0.0000 0.6988
vn -0.9999 0.0000 -0.0117
vn 0.7153 0.0000 -0.6988
vn 0.0117 0.0000 -0.9999
vn -0.0117 0.0000 0.9999
vn 0.6988 0.0000 0.7153
vn -0.0108 0.3839 0.9233
vn 0.0114 0.2263 -0.9740
vn 0.6967 0.2263 -0.6807
vn -0.6807 0.2263 -0.6967
vn 0.6807 0.2263 0.6967
vn 0.9740 0.2263 0.0114
vn -0.0114 0.2263 0.9740
vn -0.6967 0.2263 0.6807
vn 0.5994 0.5140 0.6136
vn -0.6605 0.3839 0.6453
vn -0.9233 0.3839 -0.0108
vn 0.0108 0.3839 -0.9233
vn 0.6605 0.3839 -0.6453
vn -0.6453 0.3839 -0.6605
vn 0.6453 0.3839 0.6605
vn 0.9233 0.3839 0.0108
vn 0.5531 0.6341 -0.5404
vn 0.8577 0.5140 0.0100
vn -0.0100 0.5140 0.8577
vn -0.6136 0.5140 0.5994
vn -0.8577 0.5140 -0.0100
vn 0.0100 0.5140 -0.8577
vn 0.6136 0.5140 -0.5994
vn -0.5994 0.5140 -0.6136
vn -0.4757 0.7468 0.4647
vn -0.5404 0.6341 -0.5531
vn 0.5404 0.6341 0.5531
vn 0.7732 0.6341 0.0090
vn -0.0090 0.6341 0.7732
vn -0.5531 0.6341 0.5404
vn -0.7732 0.6341 -0.0090
vn 0.0090 0.6341 -0.7732
vn -0.6649 0.7468 -0.0078
vn 0.0078 0.7469 -0.6649
vn 0.4757 0.7468 -0.4647
vn -0.4647 0.7468 -0.4757
vn 0.4647 0.7468 0.4757
vn 0.6649 0.7468 0.0078
vn -0.0078 0.7469 0.6649
vn 0.0000 0.0000 -1.0000
vn -0.0000 0.0000 1.0000
vn 0.9973 0.0731 0.0000
vn -0.9947 0.1024 0.0000
vn -0.8303 0.5573 0.0000
vn 0.6170 -0.7869 0.0000
vn 1.0000 -0.0000 0.0000
vn -1.0000 -0.0000 0.0000
vn 0.0000 0.0731 0.9973
vn 0.0000 0.1024 -0.9947
vn 0.0000 0.5573 -0.8303
vn 0.0000 -0.7869 0.6170
vn 0.0000 0.0731 -0.9973
vn 0.0000 0.1024 0.9947
vn 0.0000 0.5573 0.8303
vn 0.0000 -0.7869 -0.6170
g Plane.221_Plane.283_Material.151
usemtl Material.151
s off
f 15/1/1 14/2/1 8/3/1 5/4/1
f 14/2/2 12/5/2 4/6/2 8/3/2
f 3/7/3 1/8/3 16/9/3 13/10/3
f 6/11/4 3/7/4 13/10/4 2/12/4
f 9/13/5 7/14/5 11/15/5 10/16/5
f 7/14/6 6/11/6 2/12/6 11/15/6
f 3/7/7 6/11/7 7/14/7 9/13/7 12/5/7 14/2/7 15/1/7 1/8/7
f 12/5/8 9/13/8 10/16/8 4/6/8
f 1/8/9 15/1/9 5/4/9 16/9/9
f 13/10/10 16/9/10 5/4/10 8/3/10 4/6/10 10/16/10 11/15/10 2/12/10
g Plane.221_Plane.283_Material.153
usemtl Material.153
f 18/17/11 19/18/11 20/19/11 21/20/11 22/21/11 23/22/11 24/23/11 17/24/11
f 25/25/12 32/26/12 48/27/12 41/28/12
f 18/17/13 17/24/13 33/29/13 34/30/13
f 17/24/14 24/23/14 38/31/14 33/29/14
f 23/22/15 22/21/15 39/32/15 37/33/15
f 22/21/16 21/20/16 36/34/16 39/32/16
f 21/20/12 20/19/12 35/35/12 36/34/12
f 19/18/17 18/17/17 34/30/17 40/36/17
f 20/19/18 19/18/18 40/36/18 35/35/18
f 24/23/19 23/22/19 37/33/19 38/31/19
f 25/25/20 26/37/20 34/30/20 33/29/20
f 28/38/20 29/39/20 36/34/20 35/35/20
f 31/40/20 32/26/20 38/31/20 37/33/20
f 29/39/20 30/41/20 39/32/20 36/34/20
f 27/42/20 28/38/20 35/35/20 40/36/20
f 30/41/20 31/40/20 37/33/20 39/32/20
f 26/37/20 27/42/20 40/36/20 34/30/20
f 32/26/20 25/25/20 33/29/20 38/31/20
f 42/43/20 41/28/20 48/27/20 47/44/20 46/45/20 45/46/20 44/47/20 43/48/20
f 31/40/17 30/41/17 46/45/17 47/44/17
f 30/41/13 29/39/13 45/46/13 46/45/13
f 29/39/14 28/38/14 44/47/14 45/46/14
f 27/42/15 26/37/15 42/43/15 43/48/15
f 28/38/19 27/42/19 43/48/19 44/47/19
f 32/26/18 31/40/18 47/44/18 48/27/18
f 26/37/16 25/25/16 41/28/16 42/43/16
g Plane.221_Plane.283_Material.152
usemtl Material.152
f 50/49/21 51/50/21 52/51/21 53/52/21 54/53/21 55/54/21 56/55/21 49/56/21
f 57/57/22 64/58/22 80/59/22 73/60/22
f 50/49/23 49/56/23 65/61/23 66/62/23
f 49/56/24 56/55/24 70/63/24 65/61/24
f 55/54/25 54/53/25 71/64/25 69/65/25
f 54/53/26 53/52/26 68/66/26 71/64/26
f 53/52/22 52/51/22 67/67/22 68/66/22
f 51/50/27 50/49/27 66/62/27 72/68/27
f 52/51/28 51/50/28 72/68/28 67/67/28
f 56/55/29 55/54/29 69/65/29 70/63/29
f 57/57/30 58/69/30 66/62/30 65/61/30
f 60/70/30 61/71/30 68/66/30 67/67/30
f 63/72/30 64/58/30 70/63/30 69/65/30
f 61/71/30 62/73/30 71/64/30 68/66/30
f 59/74/30 60/70/30 67/67/30 72/68/30
f 62/73/30 63/72/30 69/65/30 71/64/30
f 58/69/30 59/74/30 72/68/30 66/62/30
f 64/58/30 57/57/30 65/61/30 70/63/30
f 74/75/30 73/60/30 80/59/30 79/76/30 78/77/30 77/78/30 76/79/30 75/80/30
f 63/72/27 62/73/27 78/77/27 79/76/27
f 62/73/31 61/71/31 77/78/31 78/77/31
f 61/71/24 60/70/24 76/79/24 77/78/24
f 59/74/25 58/69/25 74/75/25 75/80/25
f 60/70/29 59/74/29 75/80/29 76/79/29
f 64/58/28 63/72/28 79/76/28 80/59/28
f 58/69/26 57/57/26 73/60/26 74/75/26
f 82/81/7 83/82/7 84/83/7 85/84/7 86/85/7 87/86/7 88/87/7 81/88/7
f 90/89/32 89/90/32 94/91/32 93/92/32 95/93/32 92/94/32 91/95/32 96/96/32
f 83/82/33 82/81/33 90/89/33 96/96/33
f 84/83/34 83/82/34 96/96/34 91/95/34
f 88/87/35 87/86/35 93/92/35 94/91/35
f 82/81/36 81/88/36 89/90/36 90/89/36
f 81/88/37 88/87/37 94/91/37 89/90/37
f 87/86/38 86/85/38 95/93/38 93/92/38
f 86/85/39 85/84/39 92/94/39 95/93/39
f 85/84/40 84/83/40 91/95/40 92/94/40
f 98/97/7 99/98/7 100/99/7 101/100/7 102/101/7 103/102/7 104/103/7 97/104/7
f 106/105/10 105/106/10 110/107/10 109/108/10 111/109/10 108/110/10 107/111/10 112/112/10
f 99/98/41 98/97/41 106/105/41 112/112/41
f 100/99/42 99/98/42 112/112/42 107/111/42
f 104/103/43 103/102/43 109/108/43 110/107/43
f 98/97/44 97/104/44 105/106/44 106/105/44
f 97/104/45 104/103/45 110/107/45 105/106/45
f 103/102/46 102/101/46 111/109/46 109/108/46
f 102/101/47 101/100/47 108/110/47 111/109/47
f 101/100/48 100/99/48 107/111/48 108/110/48
g Plane.221_Plane.283_Material.150
usemtl Material.150
f 127/113/49 117/114/49 120/115/49 126/116/49
f 126/116/50 120/115/50 116/117/50 124/118/50
f 115/119/51 125/120/51 128/121/51 113/122/51
f 118/123/52 114/124/52 125/120/52 115/119/52
f 121/125/53 122/126/53 123/127/53 119/128/53
f 119/128/54 123/127/54 114/124/54 118/123/54
f 115/119/10 113/122/10 127/113/10 126/116/10 124/118/10 121/125/10 119/128/10 118/123/10
f 124/118/55 116/117/55 122/126/55 121/125/55
f 113/122/56 128/121/56 117/114/56 127/113/56
f 125/120/7 114/124/7 123/127/7 122/126/7 116/117/7 120/115/7 117/114/7 128/121/7
f 141/129/1 132/130/1 131/131/1 144/132/1
f 132/130/2 139/133/2 138/134/2 131/131/2
f 130/135/3 129/136/3 143/137/3 133/138/3
f 136/139/4 130/135/4 133/138/4 137/140/4
f 140/141/5 135/142/5 134/143/5 142/144/5
f 135/142/6 136/139/6 137/140/6 134/143/6
f 130/135/7 136/139/7 135/142/7 140/141/7 139/133/7 132/130/7 141/129/7 129/136/7
f 139/133/8 140/141/8 142/144/8 138/134/8
f 129/136/9 141/129/9 144/132/9 143/137/9
f 137/140/57 133/138/57 147/145/57 148/146/57
f 149/147/58 150/148/58 158/149/58 157/150/58
f 144/132/59 131/131/59 149/147/59 145/151/59
f 138/134/60 142/144/60 152/152/60 150/148/60
f 131/131/61 138/134/61 150/148/61 149/147/61
f 133/138/62 143/137/62 146/153/62 147/145/62
f 143/137/63 144/132/63 145/151/63 146/153/63
f 142/144/64 134/143/64 151/154/64 152/152/64
f 134/143/65 137/140/65 148/146/65 151/154/65
f 160/155/66 159/156/66 167/157/66 168/158/66
f 146/153/67 145/151/67 153/159/67 154/160/67
f 147/145/68 146/153/68 154/160/68 155/161/68
f 145/151/69 149/147/69 157/150/69 153/159/69
f 151/154/70 148/146/70 156/162/70 159/156/70
f 148/146/71 147/145/71 155/161/71 156/162/71
f 152/152/72 151/154/72 159/156/72 160/155/72
f 150/148/73 152/152/73 160/155/73 158/149/73
f 167/157/74 164/163/74 172/164/74 175/165/74
f 158/149/75 160/155/75 168/158/75 166/166/75
f 157/150/76 158/149/76 166/166/76 165/167/76
f 154/160/77 153/159/77 161/168/77 162/169/77
f 155/161/78 154/160/78 162/169/78 163/170/78
f 153/159/79 157/150/79 165/167/79 161/168/79
f 159/156/80 156/162/80 164/163/80 167/157/80
f 156/162/81 155/161/81 163/170/81 164/163/81
f 171/171/82 170/172/82 178/173/82 179/174/82
f 164/163/83 163/170/83 171/171/83 172/164/83
f 168/158/84 167/157/84 175/165/84 176/175/84
f 166/166/85 168/158/85 176/175/85 174/176/85
f 165/167/86 166/166/86 174/176/86 173/177/86
f 162/169/87 161/168/87 169/178/87 170/172/87
f 163/170/88 162/169/88 170/172/88 171/171/88
f 161/168/89 165/167/89 173/177/89 169/178/89
f 182/179/90 184/180/90 192/181/90 190/182/90
f 169/178/91 173/177/91 181/183/91 177/184/91
f 175/165/92 172/164/92 180/185/92 183/186/92
f 172/164/93 171/171/93 179/174/93 180/185/93
f 176/175/94 175/165/94 183/186/94 184/180/94
f 174/176/95 176/175/95 184/180/95 182/179/95
f 173/177/96 174/176/96 182/179/96 181/183/96
f 170/172/97 169/178/97 177/184/97 178/173/97
f 187/187/10 186/188/10 185/189/10 189/190/10 190/182/10 192/181/10 191/191/10 188/192/10
f 181/183/98 182/179/98 190/182/98 189/190/98
f 178/173/99 177/184/99 185/189/99 186/188/99
f 179/174/100 178/173/100 186/188/100 187/187/100
f 177/184/101 181/183/101 189/190/101 185/189/101
f 183/186/102 180/185/102 188/192/102 191/191/102
f 180/185/103 179/174/103 187/187/103 188/192/103
f 184/180/104 183/186/104 191/191/104 192/181/104
g Plane.221_Plane.283_Material.149
usemtl Material.149
f 193/193/105 195/194/105 196/195/105 194/196/105
f 197/197/106 198/198/106 200/199/106 199/200/106
f 194/196/107 196/195/107 200/199/107 198/198/107
f 195/194/108 193/193/108 197/197/108 199/200/108
f 196/195/109 195/194/109 199/200/109 200/199/109
f 193/193/110 194/196/110 198/198/110 197/197/110
g Plane.221_Plane.283_Material.148
usemtl Material.148
f 201/201/111 203/202/111 204/203/111 202/204/111
f 205/205/112 206/206/112 208/207/112 207/208/112
f 202/204/113 204/203/113 208/207/113 206/206/113
f 203/202/114 201/201/114 205/205/114 207/208/114
f 204/203/115 203/202/115 207/208/115 208/207/115
f 201/201/116 202/204/116 206/206/116 205/205/116
g Plane.221_Plane.283_Material.147
usemtl Material.147
f 209/209/112 211/210/112 212/211/112 210/212/112
f 213/213/111 214/214/111 216/215/111 215/216/111
f 210/212/117 212/211/117 216/215/117 214/214/117
f 211/210/118 209/209/118 213/213/118 215/216/118
f 212/211/119 211/210/119 215/216/119 216/215/119
f 209/209/120 210/212/120 214/214/120 213/213/120
