# Blender v2.80 (sub 75) OBJ File: 'untitled.blend'
# www.blender.org
mtllib stul.mtl
g Plane.177_Plane.232
v 27.331245 0.292497 -7.015576
v 27.334120 0.292497 -6.500761
v 27.917397 0.292497 -7.018848
v 27.920271 0.292497 -6.504032
v 27.917397 0.381779 -7.018848
v 27.331245 0.381779 -7.015576
v 27.334120 0.381779 -6.500761
v 27.920271 0.381779 -6.504032
v 27.331722 0.292497 -6.930154
v 27.917873 0.292497 -6.933425
v 27.331722 0.381779 -6.930154
v 27.917873 0.381779 -6.933425
v 27.333607 0.292497 -6.592466
v 27.333607 0.381779 -6.592466
v 27.919758 0.292497 -6.595737
v 27.919758 0.381779 -6.595737
v 27.417568 0.292497 -7.016058
v 27.420443 0.292497 -6.501242
v 27.417568 0.381779 -7.016058
v 27.420443 0.381779 -6.501242
v 27.418045 0.381779 -6.930635
v 27.418045 0.292497 -6.930635
v 27.419930 0.381779 -6.592948
v 27.419930 0.292497 -6.592948
v 27.816410 0.292497 -6.503452
v 27.816410 0.381779 -6.503452
v 27.814013 0.381779 -6.932846
v 27.815897 0.381779 -6.595158
v 27.813536 0.292497 -7.018268
v 27.813536 0.381779 -7.018268
v 27.814013 0.292497 -6.932846
v 27.815897 0.292497 -6.595158
v 27.515934 0.292497 -7.016607
v 27.515934 0.381779 -7.016607
v 27.516411 0.292497 -6.931185
v 27.518295 0.292497 -6.593497
v 27.518806 0.292497 -6.501791
v 27.518806 0.381779 -6.501791
v 27.516411 0.381779 -6.931185
v 27.518295 0.381779 -6.593497
v 27.918388 0.292497 -6.841168
v 27.918388 0.381779 -6.841168
v 27.332237 0.292497 -6.837897
v 27.332237 0.381779 -6.837897
v 27.418560 0.292497 -6.838378
v 27.418560 0.381779 -6.838378
v 27.814528 0.292497 -6.840589
v 27.814528 0.381779 -6.840589
v 27.516926 0.381779 -6.838928
v 27.516926 0.292497 -6.838928
v 27.333084 0.292497 -6.686132
v 27.333084 0.381779 -6.686132
v 27.419407 0.292497 -6.686615
v 27.815374 0.292497 -6.688824
v 27.517773 0.292497 -6.687163
v 27.919235 0.292497 -6.689404
v 27.919235 0.381779 -6.689404
v 27.419407 0.381779 -6.686615
v 27.815374 0.381779 -6.688824
v 27.517773 0.381779 -6.687163
v 27.716862 0.292497 -6.502897
v 27.716862 0.381779 -6.502897
v 27.714464 0.381779 -6.932290
v 27.716351 0.381779 -6.594602
v 27.713989 0.292497 -7.017713
v 27.713989 0.381779 -7.017713
v 27.714464 0.292497 -6.932290
v 27.716351 0.292497 -6.594602
v 27.714979 0.381779 -6.840033
v 27.714979 0.292497 -6.840033
v 27.715828 0.381779 -6.688269
v 27.715828 0.292497 -6.688269
v 27.417568 0.026515 -7.016058
v 27.331245 0.026515 -7.015576
v 27.333607 0.026515 -6.592466
v 27.334120 0.026515 -6.500761
v 27.816410 0.026515 -6.503452
v 27.920271 0.026515 -6.504032
v 27.917873 0.026515 -6.933425
v 27.917397 0.026515 -7.018848
v 27.331722 0.026515 -6.930154
v 27.418045 0.026515 -6.930635
v 27.919758 0.026515 -6.595737
v 27.419930 0.026515 -6.592948
v 27.420443 0.026515 -6.501242
v 27.813536 0.026515 -7.018268
v 27.814013 0.026515 -6.932846
v 27.815897 0.026515 -6.595158
v 27.417568 0.793357 -7.016058
v 27.331245 0.793357 -7.015576
v 27.917873 0.793357 -6.933425
v 27.917397 0.793357 -7.018848
v 27.331722 0.793357 -6.930154
v 27.814013 0.793357 -6.932846
v 27.515934 0.793357 -7.016607
v 27.418045 0.793357 -6.930635
v 27.714464 0.793357 -6.932290
v 27.813536 0.793357 -7.018268
v 27.713989 0.793357 -7.017713
v 27.516411 0.793357 -6.931185
v 27.813536 0.601013 -7.018268
v 27.331722 0.601013 -6.930154
v 27.418045 0.601013 -6.930635
v 27.516411 0.601013 -6.931185
v 27.917397 0.601013 -7.018848
v 27.814013 0.601013 -6.932846
v 27.714464 0.601013 -6.932290
v 27.713989 0.601013 -7.017713
v 27.417568 0.601013 -7.016058
v 27.515934 0.601013 -7.016607
v 27.917873 0.601013 -6.933425
v 27.331245 0.601013 -7.015576
vt 0.165929 0.147271
vt 0.165929 0.000000
vt 0.165929 0.000000
vt 0.165929 0.147271
vt 0.821868 0.822809
vt 1.000000 0.822809
vt 1.000000 1.000000
vt 0.821868 1.000000
vt 1.000000 0.822809
vt 1.000000 1.000000
vt 0.000000 0.147271
vt 0.000000 0.000000
vt 0.000000 0.000000
vt 0.000000 0.147271
vt 0.165929 1.000000
vt 0.000000 1.000000
vt 0.000000 1.000000
vt 0.165929 1.000000
vt 0.821868 0.000000
vt 1.000000 0.000000
vt 1.000000 0.000000
vt 0.821868 0.000000
vt 0.165929 0.000000
vt 0.345133 1.000000
vt 0.345133 1.000000
vt 0.000000 0.822809
vt 0.000000 0.652975
vt 0.000000 0.652975
vt 0.000000 0.822809
vt 0.000000 0.822809
vt 0.000000 1.000000
vt 0.000000 0.822809
vt 0.821868 1.000000
vt 0.639926 0.000000
vt 0.639926 0.000000
vt 0.639926 0.822809
vt 0.639926 1.000000
vt 0.639926 0.822809
vt 0.639926 1.000000
vt 0.821868 0.822809
vt 0.639926 0.147271
vt 0.821868 0.147271
vt 0.821868 0.147271
vt 0.639926 0.147271
vt 0.165929 0.822809
vt 0.165929 0.822809
vt 0.165929 0.652975
vt 0.165929 0.822809
vt 0.165929 0.822809
vt 0.165929 0.652975
vt 0.000000 0.315085
vt 0.000000 0.315085
vt 1.000000 0.147271
vt 1.000000 0.147271
vt 0.165929 1.000000
vt 0.000000 0.822809
vt 0.639926 0.652975
vt 0.821868 0.652975
vt 0.639926 0.652975
vt 0.821868 0.652975
vt 0.000000 0.652975
vt 0.165929 0.652975
vt 0.000000 1.000000
vt 0.000000 1.000000
vt 1.000000 0.652975
vt 1.000000 0.652975
vt 0.821868 0.315085
vt 1.000000 0.315085
vt 1.000000 0.315085
vt 0.821868 0.315085
vt 0.165929 0.000000
vt 0.165929 0.147271
vt 0.165929 0.147271
vt 0.165929 0.000000
vt 0.165929 0.315085
vt 0.639926 0.315085
vt 0.639926 0.315085
vt 0.000000 0.652975
vt 0.345133 0.315085
vt 0.345133 0.147271
vt 0.165929 0.147271
vt 0.345133 0.147271
vt 0.345133 0.315085
vt 0.165929 0.315085
vt 0.165929 0.652975
vt 0.345133 0.652975
vt 0.345133 0.822809
vt 0.165929 0.822809
vt 0.345133 0.822809
vt 0.345133 0.652975
vt 0.345133 0.000000
vt 0.345133 0.000000
vt 0.165929 0.315085
vt 0.165929 0.315085
vt 0.821868 0.822809
vt 0.821868 1.000000
vt 1.000000 1.000000
vt 1.000000 0.822809
vt 0.000000 0.000000
vt 0.000000 0.147271
vt 0.821868 0.000000
vt 0.821868 0.147271
vt 1.000000 0.147271
vt 1.000000 0.000000
vt 0.165929 1.000000
vt 0.000000 0.000000
vt 0.000000 0.147271
vt 0.000000 0.315085
vt 0.000000 0.315085
vt 0.000000 0.147271
vt 0.165929 1.000000
vt 0.000000 0.000000
vn 0.0056 0.0000 1.0000
vn 0.0000 1.0000 -0.0000
vn -0.0056 0.0000 -1.0000
vn 1.0000 0.0000 -0.0056
vn -1.0000 0.0000 0.0056
vn 0.0000 -1.0000 0.0000
g Plane.177_Plane.232_None
usemtl None
s off
f 22/1/1 9/2/1 81/3/1 82/4/1
f 28/5/2 26/6/2 8/7/2 16/8/2
f 25/9/1 4/10/1 8/7/1 26/6/1
f 17/11/3 1/12/3 6/13/3 19/14/3
f 10/15/4 3/16/4 5/17/4 12/18/4
f 13/19/5 2/20/5 7/21/5 14/22/5
f 1/12/5 9/2/5 11/23/5 6/13/5
f 41/24/4 10/15/4 12/18/4 42/25/4
f 101/26/3 108/27/3 99/28/3 98/29/3
f 29/30/3 3/16/3 80/31/3 86/32/3
f 4/10/4 15/33/4 16/8/4 8/7/4
f 51/34/5 13/19/5 14/22/5 52/35/5
f 59/36/2 28/5/2 16/8/2 57/37/2
f 54/38/6 56/39/6 15/33/6 32/40/6
f 51/34/6 53/41/6 24/42/6 13/19/6
f 52/35/2 14/22/2 23/43/2 58/44/2
f 31/45/5 29/30/5 86/32/5 87/46/5
f 107/47/1 106/48/1 94/49/1 97/50/1
f 33/51/3 17/11/3 19/14/3 34/52/3
f 2/20/1 18/53/1 20/54/1 7/21/1
f 14/22/2 7/21/2 20/54/2 23/43/2
f 3/16/4 10/15/4 79/55/4 80/31/4
f 3/16/3 29/30/3 30/56/3 5/17/3
f 72/57/6 54/38/6 32/40/6 68/58/6
f 71/59/2 64/60/2 28/5/2 59/36/2
f 65/61/6 29/30/6 31/45/6 67/62/6
f 105/63/3 101/26/3 98/29/3 92/64/3
f 61/65/1 25/9/1 26/6/1 62/66/1
f 64/60/2 62/66/2 26/6/2 28/5/2
f 68/58/6 32/40/6 25/9/6 61/65/6
f 24/42/6 36/67/6 37/68/6 18/53/6
f 23/43/2 20/54/2 38/69/2 40/70/2
f 18/53/1 37/68/1 38/69/1 20/54/1
f 102/71/1 103/72/1 96/73/1 93/74/1
f 17/11/6 33/51/6 35/75/6 22/1/6
f 58/44/2 23/43/2 40/70/2 60/76/2
f 53/41/6 55/77/6 36/67/6 24/42/6
f 65/61/3 33/51/3 34/52/3 66/78/3
f 22/1/6 35/75/6 50/79/6 45/80/6
f 21/81/2 46/82/2 49/83/2 39/84/2
f 63/85/2 69/86/2 48/87/2 27/88/2
f 67/62/6 31/45/6 47/89/6 70/90/6
f 11/23/2 44/91/2 46/82/2 21/81/2
f 9/2/6 22/1/6 45/80/6 43/92/6
f 31/45/6 10/15/6 41/24/6 47/89/6
f 27/88/2 48/87/2 42/25/2 12/18/2
f 9/2/5 43/92/5 44/91/5 11/23/5
f 56/39/4 41/24/4 42/25/4 57/37/4
f 15/33/4 56/39/4 57/37/4 16/8/4
f 45/80/6 50/79/6 55/77/6 53/41/6
f 46/82/2 58/44/2 60/76/2 49/83/2
f 69/86/2 71/59/2 59/36/2 48/87/2
f 70/90/6 47/89/6 54/38/6 72/57/6
f 44/91/2 52/35/2 58/44/2 46/82/2
f 43/92/6 45/80/6 53/41/6 51/34/6
f 47/89/6 41/24/6 56/39/6 54/38/6
f 48/87/2 59/36/2 57/37/2 42/25/2
f 43/92/5 51/34/5 52/35/5 44/91/5
f 50/79/6 70/90/6 72/57/6 55/77/6
f 49/83/2 60/76/2 71/59/2 69/86/2
f 35/75/6 67/62/6 70/90/6 50/79/6
f 39/84/2 49/83/2 69/86/2 63/85/2
f 29/30/3 65/61/3 66/78/3 30/56/3
f 36/67/6 68/58/6 61/65/6 37/68/6
f 40/70/2 38/69/2 62/66/2 64/60/2
f 37/68/1 61/65/1 62/66/1 38/69/1
f 103/72/1 104/93/1 100/94/1 96/73/1
f 33/51/6 65/61/6 67/62/6 35/75/6
f 60/76/2 40/70/2 64/60/2 71/59/2
f 55/77/6 72/57/6 68/58/6 36/67/6
f 88/95/6 83/96/6 78/97/6 77/98/6
f 86/32/6 80/31/6 79/55/6 87/46/6
f 74/99/6 73/100/6 82/4/6 81/3/6
f 75/101/6 84/102/6 85/103/6 76/104/6
f 9/2/5 1/12/5 74/99/5 81/3/5
f 13/19/3 24/42/3 84/102/3 75/101/3
f 10/15/1 31/45/1 87/46/1 79/55/1
f 24/42/4 18/53/4 85/103/4 84/102/4
f 32/40/3 15/33/3 83/96/3 88/95/3
f 18/53/1 2/20/1 76/104/1 85/103/1
f 25/9/5 32/40/5 88/95/5 77/98/5
f 15/33/4 4/10/4 78/97/4 83/96/4
f 1/12/3 17/11/3 73/100/3 74/99/3
f 2/20/5 13/19/5 75/101/5 76/104/5
f 17/11/4 22/1/4 82/4/4 73/100/4
f 4/10/1 25/9/1 77/98/1 78/97/1
f 98/29/2 94/49/2 91/105/2 92/64/2
f 90/106/2 93/74/2 96/73/2 89/107/2
f 99/28/2 97/50/2 94/49/2 98/29/2
f 89/107/2 96/73/2 100/94/2 95/108/2
f 95/108/2 100/94/2 97/50/2 99/28/2
f 104/93/1 107/47/1 97/50/1 100/94/1
f 110/109/3 109/110/3 89/107/3 95/108/3
f 108/27/3 110/109/3 95/108/3 99/28/3
f 111/111/4 105/63/4 92/64/4 91/105/4
f 112/112/5 102/71/5 93/74/5 90/106/5
f 109/110/3 112/112/3 90/106/3 89/107/3
f 106/48/1 111/111/1 91/105/1 94/49/1
f 30/56/4 101/26/4 106/48/4 27/88/4
f 5/17/2 30/56/2 27/88/2 12/18/2
f 66/78/2 34/52/2 39/84/2 63/85/2
f 34/52/3 19/14/3 109/110/3 110/109/3
f 107/47/5 108/27/5 66/78/5 63/85/5
f 21/81/1 39/84/1 104/93/1 103/72/1
f 106/48/6 101/26/6 105/63/6 111/111/6
f 63/85/1 27/88/1 106/48/1 107/47/1
f 30/56/3 66/78/3 108/27/3 101/26/3
f 19/14/2 6/13/2 11/23/2 21/81/2
f 103/72/5 109/110/5 19/14/5 21/81/5
f 112/112/6 109/110/6 103/72/6 102/71/6
f 110/109/4 104/93/4 39/84/4 34/52/4
f 110/109/6 108/27/6 107/47/6 104/93/6
